<?xml version="1.0" standalone="no"?>
<!DOCTYPE svg PUBLIC "-//W3C//DTD SVG 20010904//EN"
 "http://www.w3.org/TR/2001/REC-SVG-20010904/DTD/svg10.dtd">
<svg version="1.0" xmlns="http://www.w3.org/2000/svg"
 width="597.000000pt" height="490.000000pt" viewBox="0 0 597.000000 490.000000"
 preserveAspectRatio="xMidYMid meet">

<g transform="translate(0.000000,490.000000) scale(0.100000,-0.100000)"
fill="#000000" stroke="none">
<path d="M2156 4185 c-85 -159 -176 -330 -202 -380 -26 -49 -99 -187 -162
-305 -139 -260 -236 -442 -372 -700 -56 -107 -162 -305 -235 -440 -227 -420
-282 -524 -437 -824 -82 -160 -183 -349 -223 -421 -73 -132 -375 -703 -375
-711 0 -2 179 -4 398 -4 l397 0 87 168 c212 404 345 656 410 775 l69 127 550
0 549 0 1 -27 c1 -16 0 -256 -1 -535 l-2 -508 356 0 c196 0 358 0 360 0 7 0
15 467 16 888 l0 382 573 0 c472 0 588 3 662 16 522 90 939 468 1099 996 150
497 37 995 -304 1338 -201 203 -419 323 -739 409 l-136 36 -1092 5 -1091 5
-156 -290z m2304 -439 c163 -35 262 -98 373 -236 115 -143 161 -273 161 -450
0 -182 -52 -318 -171 -449 -85 -93 -160 -143 -275 -184 l-93 -32 -555 0 -555
0 -3 390 c-2 215 0 522 4 683 l6 292 522 0 c406 0 535 -3 586 -14z m-1866
-1555 c-9 -9 -712 -13 -717 -4 -2 5 19 51 48 103 29 52 138 257 242 455 105
198 244 461 309 585 l119 225 3 -679 c1 -374 -1 -682 -4 -685z"/>
</g>
</svg>
