<?xml version="1.0" standalone="no"?>
<!DOCTYPE svg PUBLIC "-//W3C//DTD SVG 20010904//EN"
 "http://www.w3.org/TR/2001/REC-SVG-20010904/DTD/svg10.dtd">
<svg version="1.0" xmlns="http://www.w3.org/2000/svg"
 width="300.000000pt" height="246.000000pt" viewBox="0 0 300.000000 246.000000"
 preserveAspectRatio="xMidYMid meet">
<metadata>
Created by potrace 1.10, written by Peter Selinger 2001-2011
</metadata>
<g transform="translate(0.000000,246.000000) scale(0.100000,-0.100000)"
fill="#000000" stroke="none">
<path d="M1135 2198 c-15 -29 -84 -159 -153 -288 -69 -129 -179 -336 -244
-460 -66 -124 -166 -310 -223 -415 -56 -104 -119 -224 -140 -265 -20 -41 -70
-136 -110 -210 -40 -74 -100 -186 -133 -247 l-60 -113 201 0 202 0 104 200
c57 109 121 231 143 270 l39 70 275 -2 276 -3 -1 -267 -2 -268 186 0 185 0 0
319 0 320 328 3 c361 4 363 5 500 78 225 120 371 368 374 635 1 188 -57 331
-192 466 -71 71 -101 94 -180 132 -183 91 -178 90 -801 95 l-546 4 -28 -54z
m1110 1 c33 -6 65 -11 70 -13 124 -34 192 -65 265 -119 137 -103 208 -205 246
-359 80 -325 -106 -675 -421 -790 -92 -35 -115 -38 -280 -38 -445 -1 -430 0
-461 -31 -24 -24 -24 -24 -25 -289 0 -146 -3 -277 -6 -293 l-6 -28 -136 3
-136 3 -2 220 c-1 121 -3 232 -3 247 0 19 -9 33 -27 45 -23 15 -57 18 -280 20
-140 1 -266 -3 -281 -8 -35 -12 -68 -62 -172 -264 -100 -191 -112 -213 -130
-243 -14 -21 -20 -22 -162 -22 -102 0 -148 3 -148 11 0 10 74 156 160 314 18
33 57 107 87 165 31 58 70 132 88 165 18 33 58 110 90 170 32 61 77 144 100
185 23 41 61 113 85 160 23 47 50 93 59 104 9 10 15 20 13 22 -2 4 30 70 80
163 17 31 46 85 66 121 32 60 61 115 163 305 21 38 46 72 56 76 29 11 981 9
1048 -2z"/>
<path d="M1670 1902 l-28 -29 -1 -332 -2 -331 28 -26 27 -25 286 3 c285 3 285
3 343 30 70 33 162 118 187 174 74 161 38 341 -90 462 -91 86 -157 100 -473
101 l-248 2 -29 -29z m635 -40 c131 -60 213 -204 203 -351 -9 -122 -78 -225
-187 -278 l-56 -28 -292 -3 -293 -3 0 346 0 346 288 -3 c275 -3 289 -4 337
-26z"/>
<path d="M1263 1778 c-11 -13 -52 -84 -90 -158 -39 -74 -98 -187 -132 -250
-115 -214 -134 -256 -122 -279 16 -29 35 -32 210 -32 171 -1 193 5 210 51 5
14 8 165 8 341 -2 331 -5 349 -46 349 -10 0 -27 -10 -38 -22z m47 -333 l0
-344 -182 -3 c-101 -2 -184 -2 -186 -2 -1 1 51 102 116 225 66 123 148 279
182 347 35 67 65 122 67 122 2 0 3 -155 3 -345z"/>
</g>
</svg>
